<?xml version="1.0" encoding="UTF-8" standalone="no"?>
<svg width="600px" height="143px" viewBox="0 0 600 143" version="1.1" xmlns="http://www.w3.org/2000/svg" xmlns:xlink="http://www.w3.org/1999/xlink" xmlns:sketch="http://www.bohemiancoding.com/sketch/ns">
    <path d="M600,142.857143 L457.142857,0 L600,0 L600,142.857143 Z M400,142.857143 C439.448911,142.857143 471.428571,110.877482 471.428571,71.4285714 C471.428571,31.9796607 439.448911,0 400,0 C360.551089,0 328.571429,31.9796607 328.571429,71.4285714 C328.571429,110.877482 360.551089,142.857143 400,142.857143 Z M235.714286,142.857143 C275.163196,142.857143 307.142857,110.877482 307.142857,71.4285714 C307.142857,31.9796607 275.163196,0 235.714286,0 C196.265375,0 164.285714,31.9796607 164.285714,71.4285714 C164.285714,110.877482 196.265375,142.857143 235.714286,142.857143 Z M71.4285714,71.4285714 L142.857143,0 L142.857143,142.857143 L71.4285714,142.857143 L0,142.857143 L0,0 L71.4285714,71.4285714 L71.4285714,71.4285714 Z" id="MOON" fill="#000000" sketch:type="MSShapeGroup"></path>
</svg>